# xmcd CD database file
#
# Track frame offsets:
#	150
#	22785
#	47567
#	68970
#	91781
#	114004
#	136928
#	161486
#
# Disc length: 2494 seconds
#
# Revision: 0
# Processed by: cddbd v1.5.1PL0 Copyright (c) Steve Scherf et al.
# Submitted via: NeoAudio 9.9.9
#
DISCID=5309bc08
DTITLE=Grupo Niche - A Golpe de Folklore
DYEAR=2000
DGENRE=Salsa
TTITLE0=Golpo de Folklore
TTITLE1=Yo No Tomo con Hombre
TTITLE2=Han Cogido la Cosa
TTITLE3=Buscare la Forma
TTITLE4=Panderata
TTITLE5=Beso
TTITLE6=Atrateño
TTITLE7=Mi Mamá Me Ha Dicho
EXTD=YEAR: 2000
EXTT0=
EXTT1=
EXTT2=
EXTT3=
EXTT4=
EXTT5=
EXTT6=
EXTT7=
PLAYORDER=
